<?xml version="1.0" encoding="iso-8859-1"?>
<!-- Generator: Adobe Illustrator 19.1.0, SVG Export Plug-In . SVG Version: 6.00 Build 0)  -->
<svg version="1.1" id="Capa_1" xmlns="http://www.w3.org/2000/svg" xmlns:xlink="http://www.w3.org/1999/xlink" x="0px" y="0px"
	 viewBox="0 0 63.48 63.48" style="enable-background:new 0 0 63.48 63.48;" xml:space="preserve">
<g>
	<g id="group-64svg">
		<path id="path-1_111_" style="fill:#8B71B5;" d="M59.24,63.48l-24.5-16.841L10.24,63.48V7.691C10.24,5.366,12.38,3,14.705,3h40
			c2.325,0,4.535,2.366,4.535,4.691V63.48z"/>
		<path id="path-2_111_" d="M53.74,62.98c-0.303,0-0.605-0.091-0.862-0.272L29.74,46.471L6.602,62.708
			c-0.459,0.323-1.058,0.362-1.554,0.103C4.551,62.553,4.24,62.04,4.24,61.48V5.691C4.24,2.446,6.589,0,9.705,0h40
			c3.104,0,5.535,2.5,5.535,5.691V61.48c0,0.56-0.312,1.073-0.808,1.331C54.214,62.925,53.977,62.98,53.74,62.98z M29.74,43.139
			c0.302,0,0.603,0.09,0.862,0.272L52.24,58.596V5.691C52.24,4.157,51.15,3,49.705,3h-40C8.277,3,7.24,4.132,7.24,5.691v52.905
			l21.638-15.185C29.137,43.229,29.438,43.139,29.74,43.139z"/>
		<path id="path-3_110_" d="M52.24,12h-46c-0.829,0-1.5-0.672-1.5-1.5S5.411,9,6.24,9h46c0.829,0,1.5,0.672,1.5,1.5
			S53.069,12,52.24,12z"/>
		<path id="path-4_108_" d="M27.776,33.33c-0.383,0-0.767-0.147-1.06-0.439c-0.586-0.586-0.586-1.536,0-2.121l6.699-6.699
			c0.586-0.586,1.535-0.586,2.121,0c0.586,0.586,0.586,1.535,0,2.121l-6.699,6.699C28.544,33.183,28.16,33.33,27.776,33.33z"/>
		<path id="path-5_97_" d="M34.475,33.33c-0.384,0-0.767-0.147-1.06-0.439l-6.699-6.699c-0.586-0.586-0.586-1.535,0-2.121
			c0.586-0.586,1.535-0.586,2.121,0l6.699,6.699c0.586,0.585,0.586,1.535,0,2.121C35.243,33.183,34.859,33.33,34.475,33.33z"/>
	</g>
</g>
<g>
</g>
<g>
</g>
<g>
</g>
<g>
</g>
<g>
</g>
<g>
</g>
<g>
</g>
<g>
</g>
<g>
</g>
<g>
</g>
<g>
</g>
<g>
</g>
<g>
</g>
<g>
</g>
<g>
</g>
</svg>
