<?xml version="1.0" encoding="iso-8859-1"?>
<!-- Generator: Adobe Illustrator 19.1.0, SVG Export Plug-In . SVG Version: 6.00 Build 0)  -->
<svg version="1.1" id="Capa_1" xmlns="http://www.w3.org/2000/svg" xmlns:xlink="http://www.w3.org/1999/xlink" x="0px" y="0px"
	 viewBox="0 0 63.48 63.48" style="enable-background:new 0 0 63.48 63.48;" xml:space="preserve">
<g>
	<g id="group-66svg">
		<path id="path-1_113_" style="fill:#8B71B5;" d="M59.24,63.48l-24.5-16.841L10.24,63.48V7.691C10.24,5.366,12.602,3,14.927,3h40
			c2.326,0,4.313,2.366,4.313,4.691V63.48z"/>
		<path id="path-2_113_" d="M53.74,62.98c-0.303,0-0.605-0.091-0.862-0.272L29.74,46.471L6.602,62.708
			c-0.459,0.323-1.057,0.362-1.554,0.103C4.551,62.553,4.24,62.04,4.24,61.48V5.691C4.24,2.553,6.791,0,9.927,0h40
			c3.079,0,5.313,2.394,5.313,5.691V61.48c0,0.56-0.312,1.073-0.808,1.331C54.214,62.925,53.977,62.98,53.74,62.98z M29.74,43.139
			c0.302,0,0.603,0.09,0.862,0.272L52.24,58.596V5.691C52.24,4.351,51.525,3,49.927,3h-40C8.42,3,7.24,4.183,7.24,5.691v52.905
			l21.638-15.185C29.137,43.229,29.438,43.139,29.74,43.139z"/>
		<path id="path-3_112_" d="M52.24,12h-46c-0.829,0-1.5-0.672-1.5-1.5S5.411,9,6.24,9h46c0.829,0,1.5,0.672,1.5,1.5
			S53.069,12,52.24,12z"/>
		<path id="path-4_110_" d="M37.558,29.057c-0.441,0-0.877-0.194-1.173-0.564l-6.763-8.468l-6.762,8.468
			c-0.516,0.647-1.46,0.752-2.108,0.235c-0.648-0.516-0.753-1.461-0.236-2.108l7.934-9.935c0.57-0.712,1.775-0.712,2.344,0
			l7.935,9.935c0.517,0.647,0.411,1.592-0.236,2.108C38.216,28.949,37.886,29.057,37.558,29.057z"/>
		<path id="path-5_98_" d="M29.74,40.5c-0.829,0-1.5-0.672-1.5-1.5V18c0-0.828,0.671-1.5,1.5-1.5s1.5,0.672,1.5,1.5v21
			C31.24,39.828,30.569,40.5,29.74,40.5z"/>
	</g>
</g>
<g>
</g>
<g>
</g>
<g>
</g>
<g>
</g>
<g>
</g>
<g>
</g>
<g>
</g>
<g>
</g>
<g>
</g>
<g>
</g>
<g>
</g>
<g>
</g>
<g>
</g>
<g>
</g>
<g>
</g>
</svg>
