<svg id="Layer_1" data-name="Layer 1" xmlns="http://www.w3.org/2000/svg" viewBox="0 0 512 512"><title>table-of-contents</title><path d="M507,97.33H124.49a5,5,0,0,0-5,5v55a5,5,0,0,0,5,5H507a5,5,0,0,0,5-5v-55A5,5,0,0,0,507,97.33Z"/><path d="M507,224.42H124.49a5,5,0,0,0-5,5v55a5,5,0,0,0,5,5H507a5,5,0,0,0,5-5v-55A5,5,0,0,0,507,224.42Z"/><path d="M507,351.5H124.49a5,5,0,0,0-5,5v55a5,5,0,0,0,5,5H507a5,5,0,0,0,5-5v-55A5,5,0,0,0,507,351.5Z"/><path d="M68.54,351.5H5a5,5,0,0,0-5,5v55a5,5,0,0,0,5,5H68.54a5,5,0,0,0,5-5v-55A5,5,0,0,0,68.54,351.5Z"/><path d="M68.54,222.83H5a5,5,0,0,0-5,5v55a5,5,0,0,0,5,5H68.54a5,5,0,0,0,5-5v-55A5,5,0,0,0,68.54,222.83Z"/><path d="M68.54,95.5H5a5,5,0,0,0-5,5v55a5,5,0,0,0,5,5H68.54a5,5,0,0,0,5-5v-55A5,5,0,0,0,68.54,95.5Z"/></svg>